<svg width="32" height="33" viewBox="0 0 32 33" fill="none" xmlns="http://www.w3.org/2000/svg">
<g clip-path="url(#clip0_2192_1908)">
<path d="M15.9529 0.755859L1.13867 5.96936L3.47942 25.3786L15.9687 32.2429L28.5222 25.2859L30.8622 5.87711L15.9529 0.755859Z" fill="#209BD6"/>
<path d="M29.384 7.00045L15.918 2.4082V30.6045L27.2032 24.3587L29.384 7.00045Z" fill="#E9F5FB"/>
<path d="M2.80078 7.08175L4.80728 24.4403L15.9183 30.603V2.40625L2.80078 7.08175Z" fill="#E9F5FB"/>
<path d="M19.6241 17.4181L15.9173 19.1516H12.0103L10.1736 23.7451L6.75781 23.8086L15.9173 3.43164L19.6241 17.4181ZM19.2656 16.5454L15.9418 9.96514L13.2153 16.4321H15.9171L19.2656 16.5454Z" fill="#F2F2F2"/>
<path d="M15.918 3.43164L15.9425 9.96514L19.0362 16.4371H15.9247L15.918 19.1474L20.2202 19.1516L22.2307 23.8091L25.4992 23.8696L15.918 3.43164Z" fill="#209BD6"/>
</g>
<defs>
<clipPath id="clip0_2192_1908">
<rect width="32" height="32" fill="white" transform="translate(0 0.5)"/>
</clipPath>
</defs>
</svg>
