<svg width="150" height="150" viewBox="0 0 150 150" fill="none" xmlns="http://www.w3.org/2000/svg">
<path fill-rule="evenodd" clip-rule="evenodd" d="M37.5 32.8125C37.5 31.5693 37.9939 30.377 38.8729 29.4979C39.752 28.6189 40.9443 28.125 42.1875 28.125H135.938C137.181 28.125 138.373 28.6189 139.252 29.4979C140.131 30.377 140.625 31.5693 140.625 32.8125V117.188C140.625 118.431 140.131 119.623 139.252 120.502C138.373 121.381 137.181 121.875 135.938 121.875H42.1875V112.5H131.25V43.125L91.6594 69.5344C90.8901 70.0463 89.9866 70.3195 89.0625 70.3195C88.1384 70.3195 87.2349 70.0463 86.4656 69.5344L46.875 43.1344V60.9375C46.875 62.1807 46.3811 63.373 45.5021 64.2521C44.623 65.1311 43.4307 65.625 42.1875 65.625H9.375V56.25H37.5V32.8125ZM65.625 75V84.375H18.75V75H65.625ZM75 103.125H28.125V93.75H75V103.125Z" fill="#20B8FB"/>
</svg>
