<svg width="95" height="93" viewBox="0 0 95 93" fill="none" xmlns="http://www.w3.org/2000/svg">
<mask id="path-1-inside-1_78_973" fill="white">
<path d="M45.5 0C70.6286 0.000164929 90.999 20.3713 90.999 45.5C90.999 52.4317 89.4463 59 86.6738 64.8799L86.9326 65.8447L93.9424 92.0078L94.1807 92.8955L93.3057 92.6123L68.6807 84.6553C61.8914 88.6833 53.9668 90.999 45.5 90.999C20.3713 90.999 0.000164951 70.6286 0 45.5C0 20.3712 20.3712 0 45.5 0Z"/>
</mask>
<path d="M45.5 0C70.6286 0.000164929 90.999 20.3713 90.999 45.5C90.999 52.4317 89.4463 59 86.6738 64.8799L86.9326 65.8447L93.9424 92.0078L94.1807 92.8955L93.3057 92.6123L68.6807 84.6553C61.8914 88.6833 53.9668 90.999 45.5 90.999C20.3713 90.999 0.000164951 70.6286 0 45.5C0 20.3712 20.3712 0 45.5 0Z" fill="#00ADEF"/>
<path d="M45.5 0L45.5 -3H45.5V0ZM90.999 45.5L93.999 45.5V45.5H90.999ZM86.6738 64.8799L83.9603 63.6004L83.4914 64.595L83.7762 65.6571L86.6738 64.8799ZM86.9326 65.8447L89.8304 65.0683L89.8302 65.0675L86.9326 65.8447ZM93.9424 92.0078L91.0446 92.7842L91.045 92.7856L93.9424 92.0078ZM94.1807 92.8955L93.2569 95.7497L98.5093 97.4498L97.0781 92.1178L94.1807 92.8955ZM93.3057 92.6123L94.2295 89.7581L94.2281 89.7576L93.3057 92.6123ZM68.6807 84.6553L69.6031 81.8006L68.3145 81.3842L67.1499 82.0752L68.6807 84.6553ZM45.5 90.999V93.999H45.5L45.5 90.999ZM0 45.5H-3V45.5L0 45.5ZM45.5 0L45.5 3C68.9717 3.00015 87.999 22.0281 87.999 45.5H90.999H93.999C93.999 18.7145 72.2856 -2.99982 45.5 -3L45.5 0ZM90.999 45.5L87.999 45.5C87.999 51.9793 86.5484 58.1115 83.9603 63.6004L86.6738 64.8799L89.3873 66.1593C92.3441 59.8885 93.999 52.8841 93.999 45.5L90.999 45.5ZM86.6738 64.8799L83.7762 65.6571L84.035 66.6219L86.9326 65.8447L89.8302 65.0675L89.5714 64.1027L86.6738 64.8799ZM86.9326 65.8447L84.0348 66.6211L91.0446 92.7842L93.9424 92.0078L96.8402 91.2314L89.8304 65.0683L86.9326 65.8447ZM93.9424 92.0078L91.045 92.7856L91.2832 93.6733L94.1807 92.8955L97.0781 92.1178L96.8398 91.2301L93.9424 92.0078ZM94.1807 92.8955L95.1045 90.0413L94.2295 89.7581L93.3057 92.6123L92.3819 95.4665L93.2569 95.7497L94.1807 92.8955ZM93.3057 92.6123L94.2281 89.7576L69.6031 81.8006L68.6807 84.6553L67.7582 87.5099L92.3832 95.467L93.3057 92.6123ZM68.6807 84.6553L67.1499 82.0752C60.8104 85.8364 53.4125 87.999 45.5 87.999L45.5 90.999L45.5 93.999C54.521 93.999 62.9724 91.5302 70.2114 87.2354L68.6807 84.6553ZM45.5 90.999V87.999C22.0281 87.999 3.00015 68.9717 3 45.5L0 45.5L-3 45.5C-2.99982 72.2856 18.7145 93.999 45.5 93.999V90.999ZM0 45.5H3C3 22.0281 22.0281 3 45.5 3V0V-3C18.7144 -3 -3 18.7144 -3 45.5H0Z" fill="#B0E6FA" mask="url(#path-1-inside-1_78_973)"/>
</svg>
