<svg width="40" height="40" viewBox="0 0 40 40" fill="none" xmlns="http://www.w3.org/2000/svg">
<path d="M31.7513 8.1831C30.2231 6.63994 28.403 5.41637 26.3972 4.5837C24.3913 3.75103 22.2398 3.3259 20.068 3.3331C10.968 3.3331 3.5513 10.7498 3.5513 19.8498C3.5513 22.7664 4.31797 25.5998 5.7513 28.0998L3.41797 36.6664L12.168 34.3664C14.5846 35.6831 17.3013 36.3831 20.068 36.3831C29.168 36.3831 36.5846 28.9664 36.5846 19.8664C36.5846 15.4498 34.868 11.2998 31.7513 8.1831ZM20.068 33.5831C17.6013 33.5831 15.1846 32.9164 13.068 31.6664L12.568 31.3664L7.36797 32.7331L8.7513 27.6664L8.41797 27.1498C7.04721 24.9615 6.31951 22.4319 6.31797 19.8498C6.31797 12.2831 12.4846 6.11643 20.0513 6.11643C23.718 6.11643 27.168 7.54976 29.7513 10.1498C31.0307 11.4229 32.0445 12.9373 32.734 14.6053C33.4235 16.2733 33.775 18.0616 33.768 19.8664C33.8013 27.4331 27.6346 33.5831 20.068 33.5831ZM27.6013 23.3164C27.1846 23.1164 25.1513 22.1164 24.7846 21.9664C24.4013 21.8331 24.1346 21.7664 23.8513 22.1664C23.568 22.5831 22.7846 23.5164 22.5513 23.7831C22.318 24.0664 22.068 24.0998 21.6513 23.8831C21.2346 23.6831 19.9013 23.2331 18.3346 21.8331C17.1013 20.7331 16.2846 19.3831 16.0346 18.9664C15.8013 18.5498 16.0013 18.3331 16.218 18.1164C16.4013 17.9331 16.6346 17.6331 16.8346 17.3998C17.0346 17.1664 17.118 16.9831 17.2513 16.7164C17.3846 16.4331 17.318 16.1998 17.218 15.9998C17.118 15.7998 16.2846 13.7664 15.9513 12.9331C15.618 12.1331 15.268 12.2331 15.018 12.2164H14.218C13.9346 12.2164 13.5013 12.3164 13.118 12.7331C12.7513 13.1498 11.6846 14.1498 11.6846 16.1831C11.6846 18.2164 13.168 20.1831 13.368 20.4498C13.568 20.7331 16.2846 24.8998 20.418 26.6831C21.4013 27.1164 22.168 27.3664 22.768 27.5498C23.7513 27.8664 24.6513 27.8164 25.368 27.7164C26.168 27.5998 27.818 26.7164 28.1513 25.7498C28.5013 24.7831 28.5013 23.9664 28.3846 23.7831C28.268 23.5998 28.018 23.5164 27.6013 23.3164Z" fill="#1CC50A"/>
</svg>
