<svg width="38" height="40" viewBox="0 0 38 40" fill="none" xmlns="http://www.w3.org/2000/svg">
<path d="M17.4337 7.21097V22.8437C17.4337 24.3832 17.134 25.8525 16.5344 27.2515C15.9349 28.6504 15.1244 29.8606 14.1029 30.8821C13.0814 31.9035 11.8712 32.714 10.4723 33.3136C9.07335 33.9131 7.60408 34.2129 6.0645 34.2129H4.64334C4.25845 34.2129 3.92537 34.0723 3.6441 33.791C3.36283 33.5097 3.22219 33.1766 3.22219 32.7917V29.9494C3.22219 29.5645 3.36283 29.2315 3.6441 28.9502C3.92537 28.6689 4.25845 28.5283 4.64334 28.5283H6.0645C7.63369 28.5283 8.97342 27.9731 10.0837 26.8629C11.194 25.7526 11.7491 24.4129 11.7491 22.8437V22.1331C11.7491 21.5409 11.5419 21.0376 11.1274 20.6231C10.7129 20.2086 10.2095 20.0014 9.61738 20.0014H4.64334C3.45905 20.0014 2.4524 19.5868 1.62339 18.7578C0.794386 17.9288 0.379883 16.9222 0.379883 15.7379V7.21097C0.379883 6.02667 0.794386 5.02002 1.62339 4.19102C2.4524 3.36201 3.45905 2.9475 4.64334 2.9475H13.1703C14.3546 2.9475 15.3612 3.36201 16.1902 4.19102C17.0192 5.02002 17.4337 6.02667 17.4337 7.21097ZM37.3299 7.21097V22.8437C37.3299 24.3832 37.0301 25.8525 36.4306 27.2515C35.831 28.6504 35.0205 29.8606 33.9991 30.8821C32.9776 31.9035 31.7674 32.714 30.3685 33.3136C28.9695 33.9131 27.5002 34.2129 25.9607 34.2129H24.5395C24.1546 34.2129 23.8215 34.0723 23.5403 33.791C23.259 33.5097 23.1183 33.1766 23.1183 32.7917V29.9494C23.1183 29.5645 23.259 29.2315 23.5403 28.9502C23.8215 28.6689 24.1546 28.5283 24.5395 28.5283H25.9607C27.5298 28.5283 28.8696 27.9731 29.9799 26.8629C31.0901 25.7526 31.6453 24.4129 31.6453 22.8437V22.1331C31.6453 21.5409 31.438 21.0376 31.0235 20.6231C30.609 20.2086 30.1057 20.0014 29.5135 20.0014H24.5395C23.3552 20.0014 22.3486 19.5868 21.5195 18.7578C20.6905 17.9288 20.276 16.9222 20.276 15.7379V7.21097C20.276 6.02667 20.6905 5.02002 21.5195 4.19102C22.3486 3.36201 23.3552 2.9475 24.5395 2.9475H33.0664C34.2507 2.9475 35.2574 3.36201 36.0864 4.19102C36.9154 5.02002 37.3299 6.02667 37.3299 7.21097Z" fill="#F8EAEA"/>
</svg>
