<svg width="40" height="40" viewBox="0 0 40 40" fill="none" xmlns="http://www.w3.org/2000/svg">
<g clip-path="url(#clip0_137_1593)">
<path d="M17.5 12.4995V9.99951H2.5C1.1225 9.99951 0 11.122 0 12.4995V17.4995H18.0275C17.68 15.972 17.5 14.327 17.5 12.4995ZM39.8975 22.4995C38.1925 25.127 35.5925 27.362 31.8675 29.502C31.295 29.8295 30.65 29.9995 30 29.9995C29.35 29.9995 28.705 29.8295 28.14 29.507C24.415 27.362 21.815 25.1245 20.1075 22.4995H0V34.9995C0 36.3795 1.1225 37.4995 2.5 37.4995H37.5C38.88 37.4995 40 36.3795 40 34.9995V22.4995H39.8975ZM11.25 29.9995H6.25C5.56 29.9995 5 29.4395 5 28.7495C5 28.0595 5.56 27.4995 6.25 27.4995H11.25C11.94 27.4995 12.5 28.0595 12.5 28.7495C12.5 29.4395 11.94 29.9995 11.25 29.9995Z" fill="#00ADEF"/>
<path d="M39.2425 6.35198L30.4925 2.60198C30.3365 2.53518 30.1685 2.50073 29.9988 2.50073C29.829 2.50073 29.661 2.53518 29.505 2.60198L20.755 6.35198C20.2975 6.54698 20 6.99948 20 7.49948V12.4995C20 19.377 22.5425 23.397 29.3775 27.3345C29.57 27.4445 29.785 27.4995 30 27.4995C30.215 27.4995 30.43 27.4445 30.6225 27.3345C37.4575 23.407 40 19.387 40 12.4995V7.49948C40 6.99948 39.7025 6.54698 39.2425 6.35198ZM34.7275 12.032L29.7275 18.282C29.4875 18.577 29.1275 18.7495 28.75 18.7495H28.6975C28.5009 18.7409 28.3091 18.6862 28.1375 18.5898C27.966 18.4934 27.8195 18.358 27.71 18.1945L25.21 14.4445C24.8275 13.8695 24.9825 13.0945 25.5575 12.712C26.1275 12.332 26.905 12.482 27.29 13.0595L28.8425 15.387L32.7725 10.472C33.205 9.93448 33.9925 9.84948 34.53 10.277C35.07 10.7045 35.155 11.492 34.7275 12.032Z" fill="#00ADEF"/>
</g>
<defs>
<clipPath id="clip0_137_1593">
<rect width="40" height="40" fill="white"/>
</clipPath>
</defs>
</svg>
