<svg width="40" height="40" viewBox="0 0 40 40" fill="none" xmlns="http://www.w3.org/2000/svg">
<path fill-rule="evenodd" clip-rule="evenodd" d="M20.4559 5.39162C17.5474 5.29402 14.6815 6.11102 12.2617 7.72762C9.5409 9.54662 7.54832 12.2664 6.63413 15.409C6.38657 15.3787 6.09013 15.3921 5.73813 15.4916C4.4239 15.865 3.4359 16.9414 2.99146 17.8898C2.41457 19.1258 2.17146 20.761 2.4279 22.4481C2.68257 24.1303 3.39324 25.517 4.28213 26.3778C5.17368 27.2392 6.18035 27.5192 7.18035 27.309C8.66924 26.9912 9.40746 26.7534 9.19902 25.3667L8.19013 18.6423C8.29259 16.8121 8.81916 15.0308 9.72825 13.4391C10.6373 11.8474 11.9041 10.4888 13.4283 9.47073C15.4826 8.09644 17.9161 7.40085 20.3863 7.48185C22.8565 7.56286 25.2392 8.41637 27.199 9.92229C28.5521 10.9597 29.6648 12.2775 30.4607 13.7854C31.2566 15.2932 31.7169 16.9554 31.8101 18.6578L31.1044 23.3614C30.3386 25.4606 28.9934 27.2997 27.2247 28.6653C25.4561 30.0309 23.3365 30.8671 21.1119 31.077H18.1048C17.9208 31.0765 17.7385 31.1125 17.5684 31.1827C17.3983 31.2529 17.2438 31.356 17.1136 31.486C16.9835 31.6161 16.8803 31.7706 16.81 31.9406C16.7397 32.1107 16.7036 32.2929 16.7039 32.477V33.2156C16.7036 33.3997 16.7396 33.582 16.8098 33.7521C16.8801 33.9222 16.9833 34.0767 17.1135 34.2068C17.2436 34.3369 17.3982 34.4401 17.5683 34.5103C17.7384 34.5805 17.9207 34.6165 18.1048 34.6161H21.8964C22.0802 34.6164 22.2623 34.5803 22.4321 34.51C22.602 34.4398 22.7563 34.3366 22.8862 34.2065C23.0161 34.0764 23.119 33.922 23.189 33.752C23.259 33.582 23.2947 33.3999 23.2941 33.2161V32.8294C26.7007 31.9953 29.6684 29.9094 31.607 26.9867L32.8217 27.309C33.8101 27.5654 34.8288 27.2387 35.7199 26.3778C36.6088 25.5165 37.319 24.1303 37.5741 22.4481C37.8319 20.7605 37.5812 19.1285 37.0115 17.8898C36.4395 16.6512 35.5875 15.8645 34.6039 15.5823C34.1919 15.4636 33.7448 15.4201 33.3612 15.409C32.5357 12.5668 30.8245 10.0623 28.4768 8.26006C26.169 6.48844 23.3638 5.48522 20.4559 5.39162Z" fill="#00ADEF"/>
<path fill-rule="evenodd" clip-rule="evenodd" d="M24.8934 17.4888C25.375 17.4894 25.8368 17.6811 26.1773 18.0217C26.5179 18.3623 26.7094 18.8241 26.7098 19.3057C26.709 19.7873 26.5173 20.249 26.1768 20.5896C25.8362 20.9301 25.3746 21.1218 24.893 21.1226C24.4108 21.1227 23.9483 20.9314 23.6071 20.5908C23.266 20.2501 23.074 19.7879 23.0734 19.3057C23.0735 19.0669 23.1207 18.8305 23.2122 18.6099C23.3037 18.3893 23.4378 18.1889 23.6067 18.0202C23.7757 17.8514 23.9763 17.7176 24.1969 17.6263C24.4176 17.5351 24.6541 17.4882 24.893 17.4884L24.8934 17.4888ZM20.0001 17.4888C20.3594 17.489 20.7105 17.5957 21.0092 17.7954C21.3078 17.9952 21.5406 18.279 21.678 18.6109C21.8154 18.9429 21.8512 19.3082 21.7811 19.6606C21.7109 20.0129 21.5378 20.3366 21.2838 20.5906C21.0297 20.8446 20.706 21.0176 20.3536 21.0877C20.0012 21.1578 19.6359 21.1218 19.304 20.9844C18.972 20.8469 18.6883 20.6141 18.4886 20.3154C18.289 20.0167 18.1824 19.6655 18.1823 19.3062C18.1821 19.0674 18.2289 18.8309 18.3202 18.6103C18.4114 18.3896 18.5453 18.1891 18.7142 18.0203C18.883 17.8514 19.0835 17.7176 19.3042 17.6263C19.5248 17.535 19.7613 17.4886 20.0001 17.4888ZM15.1081 17.4888C15.35 17.4835 15.5907 17.5265 15.8158 17.6154C16.0409 17.7043 16.246 17.8373 16.419 18.0065C16.592 18.1758 16.7295 18.3779 16.8234 18.601C16.9172 18.8241 16.9656 19.0637 16.9656 19.3057C16.9656 19.5478 16.9172 19.7874 16.8234 20.0105C16.7295 20.2336 16.592 20.4357 16.419 20.6049C16.246 20.7742 16.0409 20.9071 15.8158 20.996C15.5907 21.0849 15.35 21.128 15.1081 21.1226C14.6311 21.1152 14.1761 20.9204 13.8414 20.5805C13.5067 20.2405 13.3192 19.7826 13.3192 19.3055C13.3192 18.8284 13.5067 18.3705 13.8414 18.0305C14.1761 17.6906 14.6311 17.4963 15.1081 17.4888ZM20.0001 9.68262C14.6712 9.68262 10.377 13.8355 10.377 19.3053C10.377 21.9324 11.3703 24.2542 12.9885 25.9577L12.4143 28.5319C12.225 29.3791 12.8125 29.9488 13.5743 29.5248L16.0876 28.1226C17.3225 28.6573 18.6544 28.9318 20.0001 28.9288C25.3307 28.9288 29.6223 24.7786 29.6223 19.3066C29.6223 13.8364 25.3307 9.68351 20.0001 9.68351V9.68262Z" fill="#00ADEF"/>
</svg>
