<svg width="40" height="40" viewBox="0 0 40 40" fill="none" xmlns="http://www.w3.org/2000/svg">
<path d="M19.9824 2.5874C21.0039 2.5874 22.0034 2.73663 22.7568 3.01807L31.0742 6.13525H31.0752C33.2947 6.96202 35.0498 9.50761 35.0498 11.8667V24.2495C35.0498 25.3367 34.7056 26.5895 34.123 27.7485C33.5771 28.8348 32.8397 29.8024 32.0303 30.4556L31.8672 30.5825L24.7002 35.9321L24.6943 35.937C23.4116 36.9261 21.723 37.4331 19.999 37.4331C18.2763 37.433 16.584 36.9263 15.2637 35.9478H15.2627L8.09863 30.5991C7.22593 29.9484 6.42459 28.9208 5.8418 27.7593C5.25895 26.5976 4.91602 25.3447 4.91602 24.2661V11.8667C4.91602 9.50749 6.67096 6.96189 8.89062 6.13525H8.8916L17.208 3.01807C17.9614 2.73655 18.9608 2.58743 19.9824 2.5874ZM20 4.08545C19.2014 4.08763 18.3745 4.19487 17.7412 4.43115L17.7402 4.43213L9.42383 7.54834H9.42285C8.59535 7.85993 7.85412 8.52245 7.32324 9.29053C6.79216 10.0589 6.43262 10.9898 6.43262 11.8833V24.2661C6.43262 25.1606 6.7432 26.1893 7.2002 27.1011C7.65708 28.0126 8.29244 28.8726 9 29.4009L16.167 34.7505C17.2288 35.5444 18.6274 35.9252 20.001 35.9253C21.3749 35.9253 22.7772 35.5442 23.8467 34.7515L23.8486 34.7505L31.0146 29.4009L31.0156 29.3999C31.7304 28.8638 32.366 28.0049 32.8213 27.0942C33.2766 26.1836 33.583 25.1596 33.583 24.2661V11.8667C33.583 10.9807 33.2226 10.0539 32.6924 9.28662C32.1619 8.51907 31.4214 7.85386 30.5967 7.53369L30.5918 7.53174L22.2744 4.41455L22.2656 4.41162C21.6275 4.18643 20.7994 4.08327 20 4.08545Z" fill="#00ADEF" stroke="#00ADEF"/>
<path d="M24.4043 14.77C24.6924 14.4822 25.1759 14.482 25.4639 14.77C25.7518 15.058 25.7516 15.5415 25.4639 15.8296L18.2969 22.9966C18.1456 23.1478 17.9578 23.2163 17.7666 23.2163C17.5756 23.2162 17.3885 23.1477 17.2373 22.9966L14.5537 20.313C14.2658 20.0249 14.2657 19.5414 14.5537 19.2534C14.8417 18.9654 15.3252 18.9655 15.6133 19.2534L17.7666 21.4067L18.1211 21.0532L24.4043 14.77Z" fill="#00ADEF" stroke="#00ADEF"/>
</svg>
